<?xml version="1.0" standalone="no"?>
<!DOCTYPE svg PUBLIC "-//W3C//DTD SVG 1.1//EN" 
  "http://www.w3.org/Graphics/SVG/1.1/DTD/svg11.dtd">
<svg width="95mm" height="55mm" version="1.1"
     xmlns="http://www.w3.org/2000/svg" xmlns:xlink="http://www.w3.org/1999/xlink">
	<image xlink:href="2018_denmark_ticket-bg_grey.png" x="0" y="0" height="100%" width="100%" opacity=".66" />
	<rect x="0" y="0" width="100%" height="100%" fill="#0f0" opacity=".5" />
	<text x="15mm" y="11mm" font-family="Verdana" font-weight="bold" font-size="6mm">
    	Viølence
  	</text>
	<text x="15mm" y="15mm" font-family="Verdana" font-size="3.5mm">
    	Le nouveau cinéma danois
  	</text>
	<text x="15mm" y="30mm" font-family="Verdana" font-weight="bold" font-size="16mm">
        8.-
    </text>
	<text x="15mm" y="50mm" font-family="Verdana" font-size="2mm">
    	<tspan>ce billet donne droit à 1 entrée</tspan>
        <tspan x="15mm" y="53mm">au cycle de cinéma du 13.09.2018 au 22.12.2018</tspan>
  	</text>

    <g>
	    <rect x="55mm" y="12.5mm" width="30mm" height="30mm" fill="#fff" opacity=".75" />
        <svg xmlns="http://www.w3.org/2000/svg"
                    xmlns:xlink="http://www.w3.org/1999/xlink"
                    version="1.1"
                    baseProfile="full"
                    viewBox="-4 -4 29 29"
                    x="55mm"
                    y="12.5mm" 
                    width="30mm"
                    height="30mm"
                    id="id-of-svg">
            <symbol id="tracker">
                <path d="m 0 7 0 7 7 0 0 -7 -7 0 z m 1 1 5 0 0 5 -5 0 0 -5 z m 1 1 0 3 3 0 0 -3 -3 0 z" style="fill:#000000;stroke:none">
                </path>
            </symbol>
            <use x="0" y="-7" xlink:href="#tracker"></use>
            <use x="0" y="7" xlink:href="#tracker"></use>
            <use x="14" y="-7" xlink:href="#tracker"></use>
            <path d="M10,6 h1v4h-1v-1h-1v-1h-1v-2h1v1h1v-1 M14,8 h1v1h1v3h1v1h-2v-1h-1v-1h1v-1h-1v1h-1v-1h-1v-4h-1v-1h-1v-1h-1v-3h-1v-1h5v1h-1v1h-1v1h1v1h1v5h1v-1 M10,1 v1h1v-1h-1 M11,10 h1v1h1v2h2v1h3v1h-3v1h-1v-1h-1v1h-2v-1h1v-1h-2v4h-2v-2h1v-2h-1v-1h-2v-1h2v-2h2v1h1v-1 M10,12 v1h2v-1h-2 M9,11 v1h1v-1h-1 M18,10 h3v4h-3v-2h-1v-1h1v-1 M19,12 v1h1v-1h-1 M4,11 h2v1h-1v1h-3v-1h-1v1h-1v-2h1v-2h-1v-1h2v3h1v1h1v-1 M12,17 h1v1h1v2h-1v1h-1v-2h-1v2h-3v-2h2v-1h2v-1 M19,18 h2v1h-1v2h-1v-1h-1v1h-3v-3h1v-1h1v-1h1v2h-1v1h2v-1 M6,8 v1h1v-1h-1 M20,8 v1h1v-1h-1 M3,10 v1h1v-1h-1 M6,10 v1h1v-1h-1 M18,15 v1h1v-1h-1 M13,16 v1h1v-1h-1 M15,16 v1h1v-1h-1 M3,8 h2v2h-1v-1h-1z M19,15 m1,0h1v2h-2v-1h1z" style="fill:#000000;stroke:none" ></path>
        </svg>
    	<text x="55mm" y="50mm" font-family="OCR A std" font-size="4.5mm" stroke="white" stroke-width=".1mm">
            678135
        </text>
    </g>
</svg>