<?xml version="1.0" standalone="no"?><!DOCTYPE svg PUBLIC "-//W3C//DTD SVG 1.1//EN" "http://www.w3.org/Graphics/SVG/1.1/DTD/svg11.dtd"><svg width="100%" height="100%" viewBox="0 0 2134 2134" version="1.1" xmlns="http://www.w3.org/2000/svg" xmlns:xlink="http://www.w3.org/1999/xlink" xml:space="preserve" style="fill-rule:evenodd;clip-rule:evenodd;stroke-linejoin:round;stroke-miterlimit:1.41421;"><path d="M1666.67,225.417c262.5,187.5 433.333,494.166 433.333,841.25c0,570 -461.667,1032.08 -1031.25,1033.33c-568.75,1.25 -1034.58,-462.5 -1035.42,-1031.67c-0.416,-347.083 170.417,-654.583 432.5,-842.5c48.75,-34.583 116.667,-20 145.834,32.084l65.833,117.083c24.583,43.75 12.917,99.167 -27.5,129.167c-172.917,128.333 -283.333,331.666 -283.333,562.083c-0.417,384.583 310.416,700.417 700,700.417c381.666,0 702.5,-309.167 700,-704.584c-1.25,-215.833 -102.917,-424.166 -283.75,-558.333c-40.417,-30 -51.667,-85.417 -27.084,-128.75l65.834,-117.083c29.166,-51.667 96.666,-67.084 145,-32.5ZM1233.33,1100l0,-1000c0,-55.417 -44.583,-100 -100,-100l-133.333,0c-55.417,0 -100,44.583 -100,100l0,1000c0,55.417 44.583,100 100,100l133.333,0c55.417,0 100,-44.583 100,-100Z" style="fill:#fff;fill-rule:nonzero;"/></svg>