<?xml version="1.0" standalone="no"?><!DOCTYPE svg PUBLIC "-//W3C//DTD SVG 1.1//EN" "http://www.w3.org/Graphics/SVG/1.1/DTD/svg11.dtd"><svg width="100%" height="100%" viewBox="0 0 2067 2134" version="1.1" xmlns="http://www.w3.org/2000/svg" xmlns:xlink="http://www.w3.org/1999/xlink" xml:space="preserve" style="fill-rule:evenodd;clip-rule:evenodd;stroke-linejoin:round;stroke-miterlimit:1.41421;"><path d="M1033.33,33.333c-570.833,0 -1033.33,462.5 -1033.33,1033.33c0,570.833 462.5,1033.33 1033.33,1033.33c570.834,0 1033.33,-462.5 1033.33,-1033.33c0,-570.834 -462.5,-1033.33 -1033.33,-1033.33ZM1033.33,433.333c202.5,0 366.667,164.167 366.667,366.667c0,202.5 -164.167,366.667 -366.667,366.667c-202.5,0 -366.666,-164.167 -366.666,-366.667c0,-202.5 164.166,-366.667 366.666,-366.667ZM1033.33,1866.67c-244.583,0 -463.75,-110.834 -610.416,-284.167c78.333,-147.5 231.666,-249.167 410.416,-249.167c10,0 20,1.667 29.584,4.584c54.166,17.5 110.833,28.75 170.416,28.75c59.584,0 116.667,-11.25 170.417,-28.75c9.583,-2.917 19.583,-4.584 29.583,-4.584c178.75,0 332.084,101.667 410.417,249.167c-146.667,173.333 -365.833,284.167 -610.417,284.167Z" style="fill:#fff;fill-rule:nonzero;"/></svg>